<mxfile host="app.diagrams.net" modified="2022-01-26T12:05:13.696Z" agent="5.0 (Windows NT 10.0; Win64; x64) AppleWebKit/537.36 (KHTML, like Gecko) Chrome/97.0.4692.99 Safari/537.36" etag="0PAo1yDVy4nZCRI34Tkc" version="16.4.7" type="github">
  <diagram id="eRsR7oW1zkEu20T7fIHC" name="Page-1">
    <mxGraphModel dx="1235" dy="1113" grid="1" gridSize="10" guides="1" tooltips="1" connect="1" arrows="1" fold="1" page="1" pageScale="1" pageWidth="827" pageHeight="1169" math="0" shadow="0">
      <root>
        <mxCell id="0" />
        <mxCell id="1" parent="0" />
        <mxCell id="xyGncPqvd7YC1c6d0n6N-1" value="用户上传文件" style="rounded=1;whiteSpace=wrap;html=1;fillColor=#008a00;fontColor=#ffffff;strokeColor=#005700;" vertex="1" parent="1">
          <mxGeometry x="1170" y="70" width="120" height="60" as="geometry" />
        </mxCell>
        <mxCell id="xyGncPqvd7YC1c6d0n6N-2" value="OSS/COS存储服务" style="shape=process;whiteSpace=wrap;html=1;backgroundOutline=1;fillColor=#dae8fc;strokeColor=#6c8ebf;" vertex="1" parent="1">
          <mxGeometry x="1370" y="260" width="180" height="90" as="geometry" />
        </mxCell>
        <mxCell id="xyGncPqvd7YC1c6d0n6N-3" value="" style="endArrow=classic;html=1;rounded=0;exitX=0.75;exitY=1;exitDx=0;exitDy=0;entryX=0.5;entryY=0;entryDx=0;entryDy=0;" edge="1" parent="1" source="xyGncPqvd7YC1c6d0n6N-1" target="xyGncPqvd7YC1c6d0n6N-2">
          <mxGeometry width="50" height="50" relative="1" as="geometry">
            <mxPoint x="1290" y="540" as="sourcePoint" />
            <mxPoint x="1340" y="490" as="targetPoint" />
          </mxGeometry>
        </mxCell>
        <mxCell id="xyGncPqvd7YC1c6d0n6N-4" value="" style="endArrow=classic;html=1;rounded=0;entryX=0.75;entryY=1;entryDx=0;entryDy=0;exitX=0.25;exitY=0;exitDx=0;exitDy=0;" edge="1" parent="1" source="xyGncPqvd7YC1c6d0n6N-2" target="xyGncPqvd7YC1c6d0n6N-1">
          <mxGeometry width="50" height="50" relative="1" as="geometry">
            <mxPoint x="1290" y="540" as="sourcePoint" />
            <mxPoint x="1340" y="490" as="targetPoint" />
          </mxGeometry>
        </mxCell>
        <mxCell id="xyGncPqvd7YC1c6d0n6N-5" value="1. 上传文件" style="text;html=1;strokeColor=none;fillColor=none;align=center;verticalAlign=middle;whiteSpace=wrap;rounded=0;" vertex="1" parent="1">
          <mxGeometry x="1310" y="160" width="100" height="30" as="geometry" />
        </mxCell>
        <mxCell id="xyGncPqvd7YC1c6d0n6N-6" value="2. 返回文件地址" style="text;html=1;strokeColor=none;fillColor=none;align=center;verticalAlign=middle;whiteSpace=wrap;rounded=0;" vertex="1" parent="1">
          <mxGeometry x="1290" y="200" width="110" height="30" as="geometry" />
        </mxCell>
        <mxCell id="xyGncPqvd7YC1c6d0n6N-8" value="" style="shape=actor;whiteSpace=wrap;html=1;" vertex="1" parent="1">
          <mxGeometry x="1210" y="20" width="40" height="60" as="geometry" />
        </mxCell>
        <mxCell id="xyGncPqvd7YC1c6d0n6N-13" value="" style="endArrow=classic;html=1;rounded=0;exitX=0;exitY=1;exitDx=0;exitDy=0;" edge="1" parent="1" source="xyGncPqvd7YC1c6d0n6N-1">
          <mxGeometry width="50" height="50" relative="1" as="geometry">
            <mxPoint x="1180" y="220" as="sourcePoint" />
            <mxPoint x="1058.5714285714284" y="260" as="targetPoint" />
          </mxGeometry>
        </mxCell>
        <mxCell id="xyGncPqvd7YC1c6d0n6N-14" value="3. 将地址上传到后台" style="text;html=1;strokeColor=none;fillColor=none;align=center;verticalAlign=middle;whiteSpace=wrap;rounded=0;" vertex="1" parent="1">
          <mxGeometry x="1040" y="180" width="140" height="30" as="geometry" />
        </mxCell>
        <mxCell id="xyGncPqvd7YC1c6d0n6N-18" style="edgeStyle=orthogonalEdgeStyle;rounded=0;orthogonalLoop=1;jettySize=auto;html=1;exitX=0.75;exitY=1;exitDx=0;exitDy=0;entryX=0;entryY=0.5;entryDx=0;entryDy=0;entryPerimeter=0;" edge="1" parent="1" source="xyGncPqvd7YC1c6d0n6N-16" target="xyGncPqvd7YC1c6d0n6N-17">
          <mxGeometry relative="1" as="geometry" />
        </mxCell>
        <mxCell id="xyGncPqvd7YC1c6d0n6N-20" style="edgeStyle=orthogonalEdgeStyle;rounded=0;orthogonalLoop=1;jettySize=auto;html=1;exitX=0.25;exitY=1;exitDx=0;exitDy=0;entryX=0;entryY=0.5;entryDx=0;entryDy=0;entryPerimeter=0;" edge="1" parent="1" source="xyGncPqvd7YC1c6d0n6N-16" target="xyGncPqvd7YC1c6d0n6N-17">
          <mxGeometry relative="1" as="geometry" />
        </mxCell>
        <mxCell id="xyGncPqvd7YC1c6d0n6N-16" value="根据URL地址下载到本地，多线程构造对象并批量插入MySQL" style="shape=process;whiteSpace=wrap;html=1;backgroundOutline=1;fillColor=#dae8fc;strokeColor=#6c8ebf;" vertex="1" parent="1">
          <mxGeometry x="960" y="260" width="180" height="90" as="geometry" />
        </mxCell>
        <mxCell id="xyGncPqvd7YC1c6d0n6N-17" value="" style="shape=cylinder3;whiteSpace=wrap;html=1;boundedLbl=1;backgroundOutline=1;size=15;" vertex="1" parent="1">
          <mxGeometry x="1156" y="450" width="169" height="110" as="geometry" />
        </mxCell>
        <mxCell id="xyGncPqvd7YC1c6d0n6N-19" value="插入MySQL" style="text;html=1;strokeColor=none;fillColor=none;align=center;verticalAlign=middle;whiteSpace=wrap;rounded=0;" vertex="1" parent="1">
          <mxGeometry x="1040" y="400" width="110" height="30" as="geometry" />
        </mxCell>
        <mxCell id="xyGncPqvd7YC1c6d0n6N-21" value="插入MySQL" style="text;html=1;strokeColor=none;fillColor=none;align=center;verticalAlign=middle;whiteSpace=wrap;rounded=0;" vertex="1" parent="1">
          <mxGeometry x="940" y="400" width="110" height="30" as="geometry" />
        </mxCell>
      </root>
    </mxGraphModel>
  </diagram>
</mxfile>
